<?xml version="1.0" encoding="UTF-8" standalone="no"?>
<!-- Created with Inkscape (http://www.inkscape.org/) -->

<svg
   width="512"
   height="512"
   viewBox="0 0 512 512"
   version="1.1"
   id="svg1"
   xml:space="preserve"
   sodipodi:docname="logo_alarma_ecualert.svg"
   inkscape:version="1.3.2 (091e20e, 2023-11-25, custom)"
   inkscape:dataloss="true"
   inkscape:export-filename="svg\logo_white.svg"
   inkscape:export-xdpi="96"
   inkscape:export-ydpi="96"
   xmlns:inkscape="http://www.inkscape.org/namespaces/inkscape"
   xmlns:sodipodi="http://sodipodi.sourceforge.net/DTD/sodipodi-0.dtd"
   xmlns="http://www.w3.org/2000/svg"
   xmlns:svg="http://www.w3.org/2000/svg"><sodipodi:namedview
     id="namedview1"
     pagecolor="#ffffff"
     bordercolor="#272727"
     borderopacity="0.24705882"
     inkscape:showpageshadow="2"
     inkscape:pageopacity="0.0"
     inkscape:pagecheckerboard="0"
     inkscape:deskcolor="#262626"
     inkscape:document-units="px"
     showguides="true"
     inkscape:zoom="2"
     inkscape:cx="276.5"
     inkscape:cy="286.5"
     inkscape:window-width="1920"
     inkscape:window-height="1017"
     inkscape:window-x="-8"
     inkscape:window-y="-8"
     inkscape:window-maximized="1"
     inkscape:current-layer="layer1" /><defs
     id="defs1" /><g
     inkscape:label="Layer 1"
     inkscape:groupmode="layer"
     id="layer1"
     style="display:inline"><rect
       style="display:inline;fill:#ffffff;fill-opacity:1;fill-rule:nonzero;stroke-width:0.974677"
       id="rect3"
       width="272.04739"
       height="38.665043"
       x="127.18896"
       y="411.01395"
       inkscape:transform-center-x="136.57491"
       inkscape:transform-center-y="21.20341"
       rx="0"
       inkscape:label="down" /><path
       id="path18"
       style="display:inline;fill:#ffffff;fill-opacity:1;stroke-width:0.962509"
       inkscape:label="FaceL"
       inkscape:transform-center-x="-2.2259779"
       inkscape:transform-center-y="-6.4356187"
       d="m 259.01172,153.60156 v 0.0235 c -53.00227,2.10734 -76.71523,32.24621 -86.87695,53.44744 -5.22641,10.90427 -7.091,30.54142 -7.08594,42.66498 l 0.0605,146.16056 94.00782,0.4178 h 0.21289 l 61.80078,-0.25304 c 0.0145,-0.47833 1.7976,-59.44756 0.49219,-128.76581 -0.53542,-28.43107 -6.08922,-43.23933 -14.9668,-58.91812 -1.71003,-3.0201 -1.40479,-7.43271 2.25781,-10.07631 3.08909,-2.22964 8.44658,-1.65141 11.40625,0.74734 18.26087,14.79994 19.0918,67.88421 19.0918,67.88421 l 0.72461,128.92273 c 6.8958,0.0272 13.04556,0.0337 19.9414,0.0412 l 0.33204,-147.31393 c 0.0262,-11.60872 -1.85237,-30.3947 -7.02344,-40.7525 -10.57236,-21.17667 -35.89174,-52.08173 -93.95703,-54.20851 v -0.0216 c -0.0683,0.003 -0.13301,0.009 -0.20117,0.0118 -0.0735,-0.003 -0.14322,-0.009 -0.2168,-0.0118 z m 29.50976,24.9917 c 5.66261,-7.1e-4 10.25354,4.59026 10.25391,10.25286 7.1e-4,5.66336 -4.59054,10.25356 -10.25391,10.25285 -5.66259,-3.7e-4 -10.25266,-4.59025 -10.25195,-10.25285 3.7e-4,-5.66183 4.59013,-10.25249 10.25195,-10.25286 z"
       transform="matrix(1,0,0,0.99572116,0,0.65723655)" /><rect
       style="fill:#ffffff;fill-opacity:1;stroke-width:0.997142"
       id="rect35"
       width="13.218448"
       height="94.181435"
       x="253.86273"
       y="28.047609"
       rx="81.138992"
       ry="6.6092238"
       inkscape:transform-center-x="-1.0671229"
       inkscape:transform-center-y="-136.59174"
       inkscape:label="pillowMiddle" /><rect
       style="fill:#ffffff;fill-opacity:1;stroke-width:1.03492"
       id="rect36"
       width="13.722131"
       height="97.728615"
       x="333.01215"
       y="-246.49242"
       rx="84.230759"
       ry="6.8581481"
       inkscape:transform-center-x="-110.34456"
       inkscape:transform-center-y="-120.85389"
       transform="matrix(0.68755664,0.72613075,-0.70053541,0.71361765,0,0)"
       inkscape:label="pillowPurple1" /><rect
       style="fill:#ffffff;fill-opacity:1;stroke-width:1.00213"
       id="rect38"
       width="13.270358"
       height="94.75428"
       x="356.55188"
       y="-337.8429"
       rx="81.457642"
       ry="6.6494231"
       inkscape:transform-center-x="-4.0683186"
       inkscape:transform-center-y="-2.3786109"
       transform="matrix(0.47107521,0.88209305,-0.87670324,0.48103162,0,0)"
       inkscape:label="pillowPurple1" /><rect
       style="fill:#ffffff;fill-opacity:1;stroke-width:1.00213"
       id="rect39"
       width="13.270358"
       height="94.75428"
       x="227.61209"
       y="-515.34613"
       rx="81.457642"
       ry="6.6494231"
       inkscape:transform-center-x="-4.708291"
       inkscape:transform-center-y="0.20272521"
       transform="matrix(-0.0814993,0.9966734,-0.99753222,-0.07021025,0,0)"
       inkscape:label="pillowPurple1" /><rect
       style="fill:#ffffff;fill-opacity:1;stroke-width:1.03492"
       id="rect40"
       width="13.722131"
       height="97.728615"
       x="-42.29142"
       y="135.392"
       rx="84.230759"
       ry="6.8581481"
       inkscape:transform-center-x="110.34457"
       inkscape:transform-center-y="-120.85389"
       transform="matrix(-0.68755664,0.72613075,0.70053541,0.71361765,0,0)"
       inkscape:label="pillowPurple1" /><rect
       style="fill:#ffffff;fill-opacity:1;stroke-width:1.00213"
       id="rect41"
       width="13.270358"
       height="94.75428"
       x="103.72179"
       y="125.78495"
       rx="81.457642"
       ry="6.6494231"
       inkscape:transform-center-x="4.0683186"
       inkscape:transform-center-y="-2.3786087"
       transform="matrix(-0.47107521,0.88209305,0.87670324,0.48103162,0,0)"
       inkscape:label="pillowPurple1" /><rect
       style="fill:#ffffff;fill-opacity:1;stroke-width:1.00213"
       id="rect42"
       width="13.270358"
       height="94.75428"
       x="264.51459"
       y="8.5051098"
       rx="81.457642"
       ry="6.6494231"
       inkscape:transform-center-x="4.7082911"
       inkscape:transform-center-y="0.20272284"
       transform="matrix(0.0814993,0.9966734,0.99753222,-0.07021025,0,0)"
       inkscape:label="pillowPurple1" /></g></svg>
